<?xml version="1.0" standalone="no"?>
<!DOCTYPE svg PUBLIC "-//W3C//DTD SVG 20010904//EN"
 "http://www.w3.org/TR/2001/REC-SVG-20010904/DTD/svg10.dtd">
<svg version="1.0" xmlns="http://www.w3.org/2000/svg"
 width="696.000000pt" height="592.000000pt" viewBox="0 0 696.000000 592.000000"
 preserveAspectRatio="xMidYMid meet">
<metadata>
Created by potrace 1.16, written by Peter Selinger 2001-2019
</metadata>
<g transform="translate(0.000000,592.000000) scale(0.100000,-0.100000)"
fill="#000000" stroke="none">
<path d="M1331 5798 c-28 -14 -54 -37 -72 -67 l-29 -45 0 -2603 c0 -2164 2
-2609 14 -2636 16 -39 76 -94 114 -104 15 -5 887 -8 1937 -8 l1910 0 40 21
c22 11 54 40 70 63 l30 43 3 1019 c1 560 -1 1019 -5 1019 -5 0 -88 -80 -186
-178 l-177 -177 0 -718 0 -717 -1690 0 -1690 0 0 2360 c0 1298 -1 2363 -2
2368 -2 4 759 8 1690 10 l1692 2 0 -587 0 -588 185 185 186 185 -3 520 c-3
585 1 552 -81 619 l-39 31 -1926 3 -1927 2 -44 -22z"/>
<path d="M2063 5005 c-67 -29 -94 -126 -53 -193 12 -20 38 -41 65 -53 43 -19
73 -19 1227 -17 l1183 3 36 23 c91 56 84 188 -11 237 -42 22 -2397 22 -2447 0z"/>
<path d="M6210 4878 c-129 -20 -78 27 -1241 -1137 -854 -855 -1080 -1086
-1098 -1125 -22 -46 -52 -136 -106 -321 -13 -44 -41 -137 -61 -207 -42 -140
-40 -171 12 -184 30 -8 572 150 664 193 47 22 207 177 1128 1097 1156 1154
1115 1109 1142 1242 32 152 -59 328 -207 403 -52 26 -77 33 -158 45 -11 2 -45
-1 -75 -6z"/>
<path d="M2095 4283 c-121 -31 -142 -212 -30 -259 52 -22 2402 -21 2445 1 95
49 102 181 11 237 l-36 23 -1185 1 c-652 1 -1194 0 -1205 -3z"/>
<path d="M2090 3543 c-66 -21 -100 -67 -100 -136 0 -35 6 -53 27 -78 52 -62 5
-59 1025 -59 l933 0 140 140 140 140 -1075 -1 c-591 0 -1082 -3 -1090 -6z"/>
<path d="M2053 2790 c-62 -37 -82 -124 -43 -187 40 -66 8 -63 763 -63 l684 0
18 63 c9 34 32 95 50 135 l34 72 -737 0 c-713 0 -738 -1 -769 -20z"/>
<path d="M2112 2174 c-24 -16 -30 -62 -11 -81 9 -9 3 -15 -23 -26 -54 -23 -88
-70 -88 -124 0 -54 23 -97 68 -125 18 -11 32 -28 32 -39 0 -10 11 -26 25 -35
35 -23 74 -11 88 27 l12 30 175 -1 c96 -1 349 -1 562 -1 l387 1 -15 43 c-15
38 -23 180 -13 217 4 13 -44 15 -379 18 l-383 2 6 23 7 22 -17 -22 c-19 -27
-51 -29 -78 -5 -19 16 -20 16 -14 0 6 -17 -4 -18 -129 -18 -130 0 -134 1 -124
19 15 29 12 49 -10 71 -24 24 -48 25 -78 4z"/>
</g>
</svg>
